# xmcd CD database file
#
# Track frame offsets:
#	150
#	13678
#	28170
#	42081
#	55048
#	69869
#	84571
#	99405
#	114869
#	130094
#	139727
#	154649
#	168341
#	181427
#	195789
#	209107
#	224903
#	239502
#
# Disc length: 3407 seconds
#
# Revision: 4
# Processed by: cddbd v1.5.2PL0 Copyright (c) Steve Scherf et al.
# Submitted via: CDex 1.70beta2
#
DISCID=f60d4d12
DTITLE=Billie Holiday - The Billie Holiday Golden Collection
DYEAR=1900
DGENRE=Jazz
TTITLE0=Billie Holiday - I'll Get By
TTITLE1=Billie Holiday - My Man (Mon Homme)
TTITLE2=Billie Holiday - On the Sunny Side of the Street
TTITLE3=Billie Holiday - Why Was I Born?
TTITLE4=Billie Holiday - Keeps on a Rainin'
TTITLE5=Billie Holiday - Girls Were Made to Take Care of Boys
TTITLE6=Billie Holiday - Baby Get Lost
TTITLE7=Billie Holiday - Don't Explain
TTITLE8=Billie Holiday - Taint Nobody Business If I Do
TTITLE9=Billie Holiday - I'm Gonna Lock My Heart and Throw Away the Key
TTITLE10=Billie Holiday - Georgia on My Mind
TTITLE11=Billie Holiday - All of Me
TTITLE12=Billie Holiday - I Gotta Right to Sing the Blues
TTITLE13=Billie Holiday - Strange Fruit
TTITLE14=Billie Holiday - God Bless the Child
TTITLE15=Billie Holiday - Yesterdays
TTITLE16=Billie Holiday - Gloomy Sunday
TTITLE17=Billie Holiday - I'll Be Seeing You
EXTD=
EXTT0=
EXTT1=
EXTT2=
EXTT3=
EXTT4=
EXTT5=
EXTT6=
EXTT7=
EXTT8=
EXTT9=
EXTT10=
EXTT11=
EXTT12=
EXTT13=
EXTT14=
EXTT15=
EXTT16=
EXTT17=
PLAYORDER=
